<svg width="43" height="23" viewBox="0 0 43 23" fill="none" xmlns="http://www.w3.org/2000/svg">
<path d="M0 0L3.28993 2.87615e-07L3.28993 3.25666L-2.84706e-07 3.25666L0 0ZM3.28991 3.25666L6.58002 3.25666L6.58002 6.51324L3.28991 6.51324L3.28991 3.25666ZM6.58002 6.51324L9.86988 6.51324L9.86988 9.76987L6.58002 9.76987L6.58002 6.51324ZM9.86988 9.76987L13.1598 9.76985L13.1598 13.0267L9.86988 13.0267L9.86988 9.76987ZM6.58002 13.0267L9.86988 13.0267L9.86988 16.2831L6.58002 16.2831L6.58002 13.0267ZM3.28991 16.2831L6.58002 16.2831L6.58002 19.5399L3.28991 19.5399L3.28991 16.2831ZM-1.72602e-06 19.7434L-1.99293e-06 22.7965L-2.01072e-06 23L3.28991 23L3.28991 22.7965L3.28991 19.7434L3.28991 19.5399L-1.70824e-06 19.5399L-1.72602e-06 19.7434Z" fill="#00658B"/>
<path d="M15.0996 0L18.3895 2.84716e-07L18.3895 3.25666L15.0996 3.25666L15.0996 0ZM18.3895 3.25666L21.6796 3.25666L21.6796 6.51324L18.3895 6.51324L18.3895 3.25666ZM21.6796 6.51324L24.9695 6.51324L24.9695 9.76987L21.6796 9.76987L21.6796 6.51324ZM24.9695 9.76987L28.2594 9.76985L28.2594 13.0267L24.9695 13.0267L24.9695 9.76987ZM21.6796 13.0267L24.9695 13.0267L24.9695 16.2831L21.6796 16.2831L21.6796 13.0267ZM18.3895 16.2831L21.6796 16.2831L21.6796 19.5399L18.3895 19.5399L18.3895 16.2831ZM15.0996 19.7434L15.0996 22.7965L15.0996 23L18.3895 23L18.3895 22.7965L18.3895 19.7434L18.3895 19.5399L15.0996 19.5399L15.0996 19.7434Z" fill="#00658B"/>
<path d="M29.8403 0L33.1303 2.84716e-07L33.1303 3.25666L29.8403 3.25666L29.8403 0ZM33.1302 3.25666L36.4204 3.25666L36.4204 6.51324L33.1302 6.51324L33.1302 3.25666ZM36.4204 6.51324L39.7102 6.51324L39.7102 9.76987L36.4204 9.76987L36.4204 6.51324ZM39.7102 9.76987L43.0001 9.76985L43.0001 13.0267L39.7102 13.0267L39.7102 9.76987ZM36.4204 13.0267L39.7102 13.0267L39.7102 16.2831L36.4204 16.2831L36.4204 13.0267ZM33.1302 16.2831L36.4204 16.2831L36.4204 19.5399L33.1302 19.5399L33.1302 16.2831ZM29.8403 19.7434L29.8403 22.7965L29.8403 23L33.1302 23L33.1302 22.7965L33.1302 19.7434L33.1302 19.5399L29.8403 19.5399L29.8403 19.7434Z" fill="#00658B"/>
</svg>
