<svg width="19" height="19" viewBox="0 0 19 19" fill="none" xmlns="http://www.w3.org/2000/svg">
<path d="M12.3143 5.01685H4.02159C3.10139 5.01685 2.35254 5.76553 2.35254 6.6859V14.9783C2.35254 15.8985 3.10122 16.6472 4.02159 16.6472H12.314C13.2342 16.6472 13.983 15.8985 13.983 14.9783V6.6859C13.9832 5.76553 13.2345 5.01685 12.3143 5.01685Z" fill="#C3F0FF"/>
<path d="M16.6471 12.4001V4.79939C16.6471 3.44815 15.5518 2.35278 14.2005 2.35278H6.14855C5.84988 2.35278 5.60791 2.59492 5.60791 2.89342C5.60791 3.19209 5.85005 3.43406 6.14855 3.43406H14.2005C14.9546 3.43406 15.5657 4.04532 15.5657 4.79922V12.7046C15.5657 13.0032 15.8078 13.2452 16.1063 13.2452C16.405 13.2452 16.647 13.0031 16.647 12.7046V12.4001H16.6471Z" fill="#C3F0FF"/>
</svg>
