<svg width="56" height="30" viewBox="0 0 56 30" fill="none" xmlns="http://www.w3.org/2000/svg">
<path d="M0 0L4.24054 3.70719e-07L4.24054 4.24039L-3.70707e-07 4.24039L0 0ZM4.2405 4.24039L8.48127 4.24039L8.48127 8.48068L4.2405 8.48068L4.2405 4.24039ZM8.48127 8.48068L12.7217 8.48068L12.7217 12.721L8.48127 12.721L8.48127 8.48068ZM12.7217 12.721L16.9622 12.721L16.9622 16.9616L12.7217 16.9616L12.7217 12.721ZM8.48127 16.9616L12.7217 16.9616L12.7217 21.2017L8.48127 21.2017L8.48127 16.9616ZM4.2405 21.2017L8.48127 21.2017L8.48127 25.4423L4.2405 25.4423L4.2405 21.2017ZM-2.2474e-06 25.7073L-2.59493e-06 29.6826L-2.6181e-06 29.9476L4.2405 29.9476L4.2405 29.6826L4.2405 25.7073L4.2405 25.4423L-2.22424e-06 25.4423L-2.2474e-06 25.7073Z" fill="#AD8AFF"/>
<path d="M19.4624 0L23.7029 3.70719e-07L23.7029 4.24039L19.4624 4.24039L19.4624 0ZM23.7029 4.24039L27.9437 4.24039L27.9437 8.48068L23.7029 8.48068L23.7029 4.24039ZM27.9437 8.48068L32.1841 8.48068L32.1841 12.721L27.9437 12.721L27.9437 8.48068ZM32.1841 12.721L36.4246 12.721L36.4246 16.9616L32.1841 16.9616L32.1841 12.721ZM27.9437 16.9616L32.1841 16.9616L32.1841 21.2017L27.9437 21.2017L27.9437 16.9616ZM23.7029 21.2017L27.9437 21.2017L27.9437 25.4423L23.7029 25.4423L23.7029 21.2017ZM19.4624 25.7073L19.4624 29.6826L19.4624 29.9476L23.7029 29.9476L23.7029 29.6826L23.7029 25.7073L23.7029 25.4423L19.4624 25.4423L19.4624 25.7073Z" fill="#AD8AFF"/>
<path d="M38.4624 0L42.7029 3.70719e-07L42.7029 4.24039L38.4624 4.24039L38.4624 0ZM42.7029 4.24039L46.9437 4.24039L46.9437 8.48068L42.7029 8.48068L42.7029 4.24039ZM46.9437 8.48068L51.1841 8.48068L51.1841 12.721L46.9437 12.721L46.9437 8.48068ZM51.1841 12.721L55.4246 12.721L55.4246 16.9616L51.1841 16.9616L51.1841 12.721ZM46.9437 16.9616L51.1841 16.9616L51.1841 21.2017L46.9437 21.2017L46.9437 16.9616ZM42.7029 21.2017L46.9437 21.2017L46.9437 25.4423L42.7029 25.4423L42.7029 21.2017ZM38.4624 25.7073L38.4624 29.6826L38.4624 29.9476L42.7029 29.9476L42.7029 29.6826L42.7029 25.7073L42.7029 25.4423L38.4624 25.4423L38.4624 25.7073Z" fill="#AD8AFF"/>
</svg>
