<svg width="29" height="29" viewBox="0 0 29 29" fill="none" xmlns="http://www.w3.org/2000/svg">
<g clip-path="url(#clip0_9073_111)">
<path d="M15.7083 5.4375V7.85417H23.5625C23.883 7.85417 24.1903 7.98147 24.4169 8.20808C24.6435 8.43469 24.7708 8.74203 24.7708 9.0625V24.7708C24.7708 25.0913 24.6435 25.3986 24.4169 25.6253C24.1903 25.8519 23.883 25.9792 23.5625 25.9792H5.4375C5.11703 25.9792 4.80969 25.8519 4.58308 25.6253C4.35647 25.3986 4.22917 25.0913 4.22917 24.7708V9.0625C4.22917 8.74203 4.35647 8.43469 4.58308 8.20808C4.80969 7.98147 5.11703 7.85417 5.4375 7.85417H13.2917V5.4375H12.6875C12.5273 5.4375 12.3736 5.37385 12.2603 5.26054C12.147 5.14724 12.0833 4.99357 12.0833 4.83333V2.41667C12.0833 2.25643 12.147 2.10276 12.2603 1.98946C12.3736 1.87615 12.5273 1.8125 12.6875 1.8125H16.3125C16.4727 1.8125 16.6264 1.87615 16.7397 1.98946C16.853 2.10276 16.9167 2.25643 16.9167 2.41667V4.83333C16.9167 4.99357 16.853 5.14724 16.7397 5.26054C16.6264 5.37385 16.4727 5.4375 16.3125 5.4375H15.7083ZM6.64583 10.2708V23.5625H22.3542V10.2708H6.64583ZM27.1875 13.8958H28.3958C28.5561 13.8958 28.7097 13.9595 28.823 14.0728C28.9363 14.1861 29 14.3398 29 14.5V19.3333C29 19.4936 28.9363 19.6472 28.823 19.7605C28.7097 19.8738 28.5561 19.9375 28.3958 19.9375H27.1875C27.0273 19.9375 26.8736 19.8738 26.7603 19.7605C26.647 19.6472 26.5833 19.4936 26.5833 19.3333V14.5C26.5833 14.3398 26.647 14.1861 26.7603 14.0728C26.8736 13.9595 27.0273 13.8958 27.1875 13.8958ZM0.604167 13.8958H1.8125C1.97273 13.8958 2.12641 13.9595 2.23971 14.0728C2.35301 14.1861 2.41667 14.3398 2.41667 14.5V19.3333C2.41667 19.4936 2.35301 19.6472 2.23971 19.7605C2.12641 19.8738 1.97273 19.9375 1.8125 19.9375H0.604167C0.443932 19.9375 0.29026 19.8738 0.176956 19.7605C0.0636531 19.6472 0 19.4936 0 19.3333L0 14.5C0 14.3398 0.0636531 14.1861 0.176956 14.0728C0.29026 13.9595 0.443932 13.8958 0.604167 13.8958ZM9.66667 15.1042H12.0833C12.1627 15.1042 12.2412 15.1198 12.3145 15.1502C12.3878 15.1805 12.4544 15.225 12.5105 15.2811C12.5666 15.3372 12.6111 15.4038 12.6415 15.4771C12.6719 15.5504 12.6875 15.629 12.6875 15.7083V18.125C12.6875 18.2043 12.6719 18.2829 12.6415 18.3562C12.6111 18.4295 12.5666 18.4961 12.5105 18.5522C12.4544 18.6083 12.3878 18.6528 12.3145 18.6832C12.2412 18.7135 12.1627 18.7292 12.0833 18.7292H9.66667C9.58733 18.7292 9.50876 18.7135 9.43546 18.6832C9.36216 18.6528 9.29556 18.6083 9.23946 18.5522C9.18335 18.4961 9.13885 18.4295 9.10849 18.3562C9.07813 18.2829 9.0625 18.2043 9.0625 18.125V15.7083C9.0625 15.629 9.07813 15.5504 9.10849 15.4771C9.13885 15.4038 9.18335 15.3372 9.23946 15.2811C9.29556 15.225 9.36216 15.1805 9.43546 15.1502C9.50876 15.1198 9.58733 15.1042 9.66667 15.1042ZM16.9167 15.1042H19.3333C19.4127 15.1042 19.4912 15.1198 19.5645 15.1502C19.6378 15.1805 19.7044 15.225 19.7605 15.2811C19.8166 15.3372 19.8611 15.4038 19.8915 15.4771C19.9219 15.5504 19.9375 15.629 19.9375 15.7083V18.125C19.9375 18.2043 19.9219 18.2829 19.8915 18.3562C19.8611 18.4295 19.8166 18.4961 19.7605 18.5522C19.7044 18.6083 19.6378 18.6528 19.5645 18.6832C19.4912 18.7135 19.4127 18.7292 19.3333 18.7292H16.9167C16.8373 18.7292 16.7588 18.7135 16.6855 18.6832C16.6122 18.6528 16.5456 18.6083 16.4895 18.5522C16.4334 18.4961 16.3889 18.4295 16.3585 18.3562C16.3281 18.2829 16.3125 18.2043 16.3125 18.125V15.7083C16.3125 15.629 16.3281 15.5504 16.3585 15.4771C16.3889 15.4038 16.4334 15.3372 16.4895 15.2811C16.5456 15.225 16.6122 15.1805 16.6855 15.1502C16.7588 15.1198 16.8373 15.1042 16.9167 15.1042Z" fill="#8AE2FF"/>
</g>
<defs>
<clipPath id="clip0_9073_111">
<rect width="29" height="29" fill="white"/>
</clipPath>
</defs>
</svg>
