<svg width="27" height="27" fill="none" xmlns="http://www.w3.org/2000/svg"><path d="M6 0h3v3H6V0zM9 0h3v3H9V0zM12 0h3v3h-3V0zM15 0h3v3h-3V0zM18 0h3v3h-3V0zM21 3h3v3h-3V3zM12 6h3v3h-3V6zM12 11h3v9h-3v-9zM3 3h3v3H3V3zM21 27h-3v-3h3v3zM18 27h-3v-3h3v3zM15 27h-3v-3h3v3zM12 27H9v-3h3v3zM9 27H6v-3h3v3zM6 24H3v-3h3v3zM24 24h-3v-3h3v3zM24 6h3v3h-3V6zM24 9h3v3h-3V9zM24 12h3v3h-3v-3zM24 15h3v3h-3v-3zM24 18h3v3h-3v-3zM0 6h3v3H0V6zM0 9h3v3H0V9zM0 12h3v3H0v-3zM0 15h3v3H0v-3zM0 18h3v3H0v-3z" fill="#FD53C5"/></svg>