<svg width="70" height="70" viewBox="0 0 70 70" fill="none" xmlns="http://www.w3.org/2000/svg">
<path d="M35 25.0834C34.5359 25.0834 34.0908 24.899 33.7626 24.5709C33.4344 24.2427 33.25 23.7975 33.25 23.3334V18.6667C33.2622 16.9687 33.9422 15.3437 35.1429 14.143C36.3436 12.9423 37.9686 12.2623 39.6667 12.2501H46.6667C47.4365 12.2381 48.1714 11.9269 48.7158 11.3825C49.2602 10.8381 49.5713 10.1032 49.5833 9.33342V4.66675C49.5833 4.20262 49.7677 3.7575 50.0959 3.42931C50.4241 3.10112 50.8692 2.91675 51.3333 2.91675C51.7975 2.91675 52.2426 3.10112 52.5708 3.42931C52.899 3.7575 53.0833 4.20262 53.0833 4.66675V9.33342C53.0711 11.0314 52.3912 12.6565 51.1904 13.8572C49.9897 15.0579 48.3647 15.7379 46.6667 15.7501H39.6667C38.8969 15.7621 38.162 16.0733 37.6176 16.6177C37.0732 17.1621 36.762 17.897 36.75 18.6667V23.3334C36.75 23.5632 36.7047 23.7908 36.6168 24.0031C36.5288 24.2154 36.3999 24.4083 36.2374 24.5709C36.0749 24.7334 35.882 24.8623 35.6697 24.9502C35.4574 25.0382 35.2298 25.0834 35 25.0834Z" fill="#00384D"/>
<path d="M65.7419 53.1999L63.8052 35.6999C63.3717 31.8171 61.5219 28.2303 58.6097 25.6259C55.6974 23.0214 51.9272 21.5821 48.0202 21.5833H21.9802C18.0714 21.5824 14.2997 23.0234 11.3872 25.6302C8.47464 28.2371 6.626 31.8266 6.1952 35.7116L4.24687 53.2116C3.90873 56.1359 4.61296 59.0857 6.23559 61.5419C7.85823 63.9981 10.2953 65.8032 13.1178 66.6395C15.9402 67.4758 18.9673 67.2897 21.666 66.1139C24.3648 64.9381 26.5624 62.8481 27.8719 60.2116L29.0385 57.7966H40.9152L42.0819 60.2116C43.396 62.8395 45.5935 64.9209 48.2889 66.0906C50.9842 67.2604 54.0054 67.4438 56.8224 66.6087C59.6395 65.7736 62.0726 63.9733 63.695 61.5236C65.3174 59.0739 66.0256 56.1312 65.6952 53.2116L65.7419 53.1999Z" fill="#00384D"/>
<path d="M53.0292 37.1001V39.2001H54.4292V41.3001H55.1292V39.2001H56.5292V37.1001H58.6292V39.9001H57.2292V42.0001H55.8292V42.7001H57.2292V44.1001H58.6292V46.9001H56.5292V45.5001H55.1292V43.4001H54.4292V45.5001H53.0292V46.9001H50.9292V44.1001H52.3292V42.7001H53.7292V42.0001H52.3292V39.9001H50.9292V37.1001H53.0292Z" fill="#FFD436"/>
<path d="M42.5265 46.9001V45.5001H41.1265V38.5001H42.5265V37.1001H47.4265V38.5001H48.8265V45.5001H47.4265V46.9001H42.5265ZM43.2265 44.8001H46.7265V42.7001H45.3265V44.1001H43.2265V44.8001ZM43.2265 42.0001H44.6265V40.6001H46.7265V39.2001H43.2265V42.0001Z" fill="#FFD436"/>
<path d="M32.7237 46.9001V45.5001H31.3237V38.5001H32.7237V37.1001H37.6237V38.5001H39.0237V45.5001H37.6237V46.9001H32.7237ZM33.4237 44.8001H36.9237V42.7001H35.5237V44.1001H33.4237V44.8001ZM33.4237 42.0001H34.8237V40.6001H36.9237V39.2001H33.4237V42.0001Z" fill="#FFD436"/>
<path d="M22.921 46.9001V45.5001H21.521V38.5001H22.921V37.1001H27.821V38.5001H29.221V45.5001H27.821V46.9001H22.921ZM23.621 44.8001H27.121V42.7001H25.721V44.1001H23.621V44.8001ZM23.621 42.0001H25.021V40.6001H27.121V39.2001H23.621V42.0001Z" fill="#FFD436"/>
<path d="M16.6183 44.8001H19.4183V46.9001H11.7183V44.8001H14.5183V40.6001H12.4183V38.5001H14.5183V37.1001H16.6183V44.8001Z" fill="#FFD436"/>
</svg>
