<svg width="70" height="70" viewBox="0 0 70 70" fill="none" xmlns="http://www.w3.org/2000/svg">
<path fill-rule="evenodd" clip-rule="evenodd" d="M59.0625 24.0625C51.1875 14.875 36.3125 10.5 22.3125 17.5C7.43755 25.375 3.06255 40.25 4.37505 49.875C5.25005 53.8125 8.75005 58.1875 12.6875 56.4375C14.2065 55.678 15.3958 54.4242 16.6132 53.1408C18.2009 51.467 19.8362 49.7429 22.3125 49C24.9375 48.125 28.0001 50.3125 30.1876 53.8125C34.1251 59.5 42.4375 66.5 55.5625 59.9375C67.8125 53.8125 67.8125 35 59.0625 24.0625ZM56.875 49.4375C56.875 44.625 52.9375 41.125 48.5625 41.125C44.1875 41.125 40.25 44.625 40.25 49.4375C40.25 54.25 43.75 57.75 48.5625 57.75C53.375 57.75 56.875 53.8125 56.875 49.4375ZM56.875 29.3125C56.875 26.25 54.25 23.1875 50.75 23.1875C47.6875 23.1875 44.625 25.8125 44.625 29.3125C44.625 32.8125 47.25 35.4375 50.75 35.4375C54.25 35.4375 56.875 32.375 56.875 29.3125ZM25.375 24.9375C25.375 23.1875 23.625 21.4375 21.875 21.4375C20.125 21.4375 18.375 23.1875 18.375 24.9375C18.375 26.6875 20.125 28.4375 21.875 28.4375C23.625 28.4375 25.375 26.6875 25.375 24.9375ZM40.25 21.4375C40.25 19.25 38.5 17.0625 35.875 17.0625C33.6875 17.0625 31.5 19.25 31.5 21.4375C31.5 23.625 33.6875 25.8125 35.875 25.8125C38.0625 25.8125 40.25 23.625 40.25 21.4375Z" fill="#00384D"/>
<path d="M24.0623 50.3127C24.4998 50.3127 24.9373 50.3127 25.8123 50.7502L13.1248 64.7502C12.2498 65.6252 10.9373 66.0627 10.4998 65.6252L10.0623 65.1877C9.62478 64.7502 9.62478 63.4377 10.4998 62.5627L15.3123 56.8752C16.1873 56.0002 17.0623 55.1252 18.3748 54.2502C20.1248 52.9377 21.4373 51.1877 23.1873 50.7502C23.6248 50.3127 23.6248 50.3127 24.0623 50.3127ZM52.4998 14.0002L55.9998 17.0627L55.1248 17.9377L51.1873 15.3127L52.4998 14.0002ZM57.3123 7.43773C57.3123 7.87523 57.7498 8.31273 58.6248 8.31273C59.4998 8.75023 59.4998 8.75023 59.9373 9.62523C60.3748 10.5002 60.8123 11.3752 61.2498 11.3752L56.8748 15.7502L53.3748 13.1252L57.3123 7.43773ZM61.2498 4.37523C62.9998 5.25023 62.5623 6.56273 62.9998 7.00023C63.4373 7.43773 64.3123 7.00023 65.1873 7.43773C66.0623 8.31273 65.1873 9.62523 64.7498 10.5002C64.3123 11.3752 64.7498 11.3752 65.1873 11.3752C65.6248 11.3752 66.0623 11.8127 66.0623 12.2502C66.0623 12.6877 65.6248 13.1252 65.1873 12.6877C64.7498 12.2502 64.3123 11.3752 63.8748 11.8127C62.9998 12.2502 62.9998 11.3752 62.1248 10.9377C61.6873 10.5002 61.2498 10.0627 60.8123 9.18773C60.3748 8.31273 60.3748 8.31273 59.4998 7.87523C58.6248 7.43773 58.1873 6.56273 58.1873 6.12523C58.1873 6.12523 59.4998 3.93773 61.2498 4.37523Z" fill="#00384D"/>
</svg>
