<svg width="70" height="70" viewBox="0 0 70 70" fill="none" xmlns="http://www.w3.org/2000/svg">
<path d="M57.6647 53.3205C58.7374 53.3218 59.7812 53.668 60.6419 54.3081C61.5026 54.9483 62.1346 55.8483 62.4444 56.8752L64.6319 64.0283C64.6468 64.1262 64.6468 64.2258 64.6319 64.3237C64.6319 64.5876 64.527 64.8408 64.3404 65.0274C64.1537 65.2141 63.9006 65.319 63.6366 65.319C63.5387 65.3332 63.4392 65.3332 63.3413 65.319L56.1882 63.1315C55.0437 62.7813 54.0628 62.032 53.4239 61.0199C52.785 60.0078 52.5305 58.8001 52.7066 57.6162C52.8827 56.4324 53.4778 55.3511 54.3837 54.5688C55.2895 53.7865 56.446 53.3552 57.6428 53.3533L57.6647 53.3205ZM5.72253 3.3799C35.2538 3.3799 41.6085 18.5283 46.3772 21.4487C53.8585 21.8752 61.6022 25.6924 65.9991 31.8612C66.2933 32.2743 66.4778 32.7554 66.5353 33.2593C66.5929 33.7632 66.5216 34.2735 66.3282 34.7424C66.1347 35.2112 65.8254 35.6233 65.4293 35.9401C65.0331 36.2568 64.5631 36.4678 64.0632 36.5533C60.7337 37.1578 57.531 38.3228 54.5913 39.9987C55.1382 41.9893 55.5757 43.9252 55.8928 45.7408C55.976 46.2147 55.9439 46.7016 55.7992 47.1604C55.6545 47.6192 55.4015 48.0364 55.0616 48.3768L47.7225 55.7158C47.444 55.9944 47.1132 56.2152 46.749 56.3654C46.3848 56.5155 45.9946 56.5922 45.6007 56.5908C45.4296 56.6063 45.2576 56.6063 45.0866 56.5908C43.271 56.2737 41.335 55.8362 39.3444 55.2893C37.6817 58.2173 36.5243 61.4047 35.921 64.7174C35.8354 65.2173 35.6244 65.6874 35.3077 66.0835C34.991 66.4797 34.5789 66.789 34.11 66.9824C33.6411 67.1759 33.1309 67.2471 32.6269 67.1896C32.123 67.132 31.6419 66.9475 31.2288 66.6533C25.071 62.2783 21.2757 54.5127 20.8272 47.0315C10.5241 36.7502 2.98815 26.7315 2.72565 6.37678C2.72421 5.98282 2.80073 5.59247 2.95083 5.22821C3.10093 4.86396 3.32162 4.53302 3.60019 4.25444C3.87877 3.97587 4.20971 3.75518 4.57396 3.60508C4.93821 3.45499 5.32856 3.37846 5.72253 3.3799ZM53.0491 35.0987C55.2734 33.9946 57.5947 33.0975 59.9835 32.419C57.0528 29.7016 53.4512 27.814 49.5491 26.9502C50.8945 29.5936 52.0637 32.323 53.0491 35.1205V35.0987ZM31.7647 60.6377C32.4468 58.2486 33.3475 55.9273 34.4553 53.7033C31.6574 52.7147 28.9279 51.5419 26.285 50.1924C27.1488 54.0945 29.0364 57.6961 31.7538 60.6268L31.7647 60.6377ZM22.435 28.6018C23.681 28.6018 24.8991 28.2323 25.9351 27.54C26.9711 26.8478 27.7786 25.8639 28.2555 24.7127C28.7323 23.5615 28.8571 22.2948 28.614 21.0727C28.3709 19.8506 27.7709 18.7281 26.8898 17.847C26.0087 16.9659 24.8862 16.3659 23.6641 16.1228C22.442 15.8797 21.1753 16.0045 20.0241 16.4813C18.8729 16.9582 17.889 17.7657 17.1968 18.8017C16.5045 19.8377 16.135 21.0558 16.135 22.3018C16.135 23.9726 16.7988 25.5751 17.9803 26.7565C19.1617 27.938 20.7642 28.6018 22.435 28.6018Z" fill="#00384D"/>
</svg>
