<svg width="15" height="15" viewBox="0 0 15 15" fill="none" xmlns="http://www.w3.org/2000/svg">
<g clip-path="url(#clip0_8126_117)">
<path d="M3.76401 12.57C3.82494 12.57 3.89807 12.5925 3.94026 12.5409C4.21588 12.2194 4.48869 11.88 4.77182 11.5331C3.98945 11.3121 3.28468 10.8762 2.73744 10.275C2.70463 10.1981 2.73744 10.1878 2.80401 10.2075C3.22588 10.4353 3.66182 10.6388 4.10713 10.8169C5.56963 11.3916 7.15213 11.595 8.71307 11.4075C10.004 11.2327 11.2476 10.8041 12.3721 10.1466C12.4424 10.1653 12.3721 10.1981 12.3721 10.2234C12.3721 10.2487 12.2953 10.3228 12.2531 10.3678C11.7524 10.8801 11.1298 11.2569 10.4437 11.4628C10.2412 11.5266 10.2346 11.5875 10.3724 11.7347C10.5749 11.9597 10.7671 12.1941 10.9499 12.435C10.9811 12.4832 11.0256 12.5213 11.0781 12.5446C11.1305 12.5679 11.1886 12.5754 11.2453 12.5662C12.4027 12.51 13.509 12.0722 14.3915 11.3212C14.8509 10.9228 15.1199 10.4831 14.9493 9.85781C14.9476 9.83942 14.9476 9.8209 14.9493 9.8025C14.8109 7.86604 14.3555 5.96544 13.6012 4.17656C13.4814 3.83759 13.2958 3.52562 13.0552 3.25855C12.8145 2.99149 12.5234 2.77459 12.1987 2.62031C11.4278 2.23596 10.5978 1.98401 9.74338 1.875C9.59338 1.875 9.44526 1.8975 9.42276 2.04187C9.40026 2.18625 9.57651 2.14781 9.66651 2.17969C10.5343 2.45041 11.3566 2.84986 12.1059 3.36469C12.1059 3.39937 12.1574 3.41531 12.1631 3.45375C12.1256 3.43125 12.0796 3.45375 12.0412 3.42844C11.9418 3.39 11.8424 3.35438 11.7431 3.30937C9.76674 2.44797 7.57789 2.19754 5.45807 2.59031C4.44557 2.77406 3.46119 3.09187 2.53119 3.53437C2.50869 3.53437 2.48619 3.55687 2.46651 3.53437C2.44776 3.51188 2.46651 3.49594 2.46651 3.48C3.34502 2.85876 4.32177 2.38971 5.35588 2.0925C5.41963 2.07375 5.52932 2.0925 5.51901 1.99406C5.50963 1.89375 5.40651 1.875 5.31088 1.875H5.20119C4.02532 2.01302 2.90588 2.45575 1.95369 3.15937C1.87501 3.21802 1.81218 3.29535 1.77088 3.38437C0.683089 5.55891 0.0792431 7.94326 0.00088144 10.3734C-0.00849356 10.5684 0.0571314 10.7597 0.187444 10.9059C0.634058 11.4177 1.18303 11.8302 1.79892 12.1166C2.4148 12.4031 3.08392 12.5572 3.76307 12.5691L3.76401 12.57ZM9.81651 6.62813C9.9957 6.63793 10.1712 6.68307 10.3329 6.76095C10.4945 6.83883 10.6392 6.94791 10.7586 7.08191C10.878 7.21592 10.9697 7.3722 11.0284 7.54178C11.0871 7.71135 11.1118 7.89087 11.1009 8.07C11.1044 8.42592 10.9692 8.76923 10.7241 9.02731C10.479 9.28538 10.1431 9.43798 9.78744 9.45281C9.42804 9.42945 9.09155 9.26818 8.84821 9.00266C8.60487 8.73714 8.4735 8.38788 8.48151 8.02781C8.4746 7.84758 8.50393 7.6678 8.56776 7.49911C8.63159 7.33042 8.72861 7.17625 8.8531 7.04574C8.97758 6.91522 9.12699 6.81101 9.29247 6.73928C9.45796 6.66755 9.63615 6.62975 9.81651 6.62813ZM5.08494 6.62813C5.26412 6.63017 5.44111 6.66785 5.60559 6.73896C5.77007 6.81006 5.91876 6.91318 6.043 7.04231C6.16724 7.17144 6.26455 7.324 6.32927 7.49109C6.39398 7.65819 6.4248 7.8365 6.41994 8.01562C6.4355 8.37938 6.30668 8.73454 6.06154 9.00374C5.8164 9.27293 5.47481 9.43435 5.11119 9.45281C4.93279 9.44546 4.75759 9.40299 4.59563 9.32782C4.43367 9.25266 4.28812 9.14628 4.16733 9.01478C4.04655 8.88328 3.95289 8.72924 3.89172 8.56149C3.83056 8.39374 3.80308 8.21557 3.81088 8.03719C3.80001 7.86034 3.82454 7.68311 3.88305 7.51587C3.94156 7.34863 4.03286 7.19475 4.15161 7.06325C4.27036 6.93176 4.41416 6.82529 4.57459 6.75009C4.73502 6.67488 4.90885 6.63246 5.08588 6.62531V6.62813H5.08494Z" fill="#00658B"/>
</g>
<defs>
<clipPath id="clip0_8126_117">
<rect width="15" height="15" fill="white"/>
</clipPath>
</defs>
</svg>
