<svg width="15" height="15" viewBox="0 0 15 15" fill="none" xmlns="http://www.w3.org/2000/svg">
<g clip-path="url(#clip0_9073_81)">
<path d="M7.85723 11.2245L7.85533 3.12982C7.78456 1.38045 8.5989 0.666127 10.0692 0.400842C11.203 0.196385 12.3634 0.140153 13.6818 0C13.6818 3.36445 13.6773 9.56057 13.6773 9.56057L13.6818 10.3599C13.6818 10.3599 10.7019 10.1273 7.85723 11.2245Z" fill="#00658B"/>
<path d="M8.13525 11.7924C10.1779 11.4602 12.2412 11.1281 14.4987 10.7611C14.4987 7.71895 14.4987 1.52002 14.4987 1.52002H14.9849L14.9861 11.1602C14.9754 11.5585 14.5445 12.2725 14.2879 12.2853L8.52567 12.2873C8.36956 12.2838 8.13525 11.7924 8.13525 11.7924Z" fill="#00658B"/>
<path d="M7.17247 11.2245L7.17438 3.12982C7.24516 1.38045 6.43053 0.666112 4.96017 0.400842C3.82668 0.196385 2.66633 0.140153 1.34766 0C1.34766 3.36445 1.35239 9.56057 1.35239 9.56057L1.34766 10.3599C1.34766 10.3599 4.32786 10.1273 7.17247 11.2245Z" fill="#00658B"/>
<path d="M6.84462 11.7924C4.802 11.4603 2.7683 11.1282 0.510805 10.7612C0.510805 7.71902 0.510715 1.52009 0.510715 1.52009L0.000149751 1.52002L0 11.1603C0.0107522 11.5586 0.46531 12.2726 0.721596 12.2854L6.45441 12.2873C6.61081 12.2839 6.84462 11.7924 6.84462 11.7924Z" fill="#00658B"/>
</g>
<defs>
<clipPath id="clip0_9073_81">
<rect width="15" height="14.9854" fill="white"/>
</clipPath>
</defs>
</svg>
