<svg width="15" height="15" viewBox="0 0 15 15" fill="none" xmlns="http://www.w3.org/2000/svg">
<path d="M12.4688 0.46875H2.90625C2.34375 0.46875 1.96875 0.84375 1.96875 1.40625V13.7812C1.96875 14.25 2.4375 14.7188 2.90625 14.7188H8.90625C9.46875 14.7188 9.84375 14.3438 9.84375 13.7812V11.8125C9.84375 11.3438 10.3125 10.875 10.7812 10.875H12.375C12.9375 10.875 13.3125 10.5 13.3125 9.9375V1.3125C13.5 0.84375 13.0313 0.46875 12.4688 0.46875ZM9.375 8.15625C9.375 8.4375 9.1875 8.625 8.90625 8.625H4.6875C4.40625 8.625 4.21875 8.4375 4.21875 8.15625V8.0625C4.21875 7.78125 4.40625 7.59375 4.6875 7.59375H8.90625C9.1875 7.59375 9.375 7.78125 9.375 8.15625ZM11.4375 5.625C11.4375 5.90625 11.25 6.09375 10.9688 6.09375H4.6875C4.40625 6 4.125 5.8125 4.125 5.625V5.53125C4.125 5.25 4.3125 5.0625 4.59375 5.0625H10.875C11.25 5.0625 11.4375 5.25 11.4375 5.625ZM11.4375 3.09375C11.4375 3.375 11.25 3.5625 10.9688 3.5625H4.6875C4.40625 3.5625 4.21875 3.375 4.21875 3.09375V3C4.21875 2.71875 4.40625 2.53125 4.6875 2.53125H10.9688C11.25 2.53125 11.4375 2.71875 11.4375 3.09375Z" fill="#00658B"/>
<path d="M10.5 12.4688V13.7812C10.5 14.25 11.0625 14.4375 11.3438 14.1563L13.2188 12.2813C13.5 12 13.3125 11.4375 12.8438 11.4375H11.5313C10.9688 11.4375 10.5 11.9063 10.5 12.4688Z" fill="#00658B"/>
</svg>
