<svg width="15" height="15" viewBox="0 0 15 15" fill="none" xmlns="http://www.w3.org/2000/svg">
<path d="M2.04545 0C1.50297 0 0.982696 0.221249 0.599098 0.615076C0.215501 1.0089 -9.53674e-07 1.54305 -9.53674e-07 2.1V3.5H1.36364V11.9C1.36364 12.457 1.57914 12.9911 1.96274 13.3849C2.34633 13.7788 2.8666 14 3.40909 14H12.9545C13.497 14 14.0173 13.7788 14.4009 13.3849C14.7845 12.9911 15 12.457 15 11.9V10.5H4.09091V11.9C4.09089 12.0715 4.02957 12.2369 3.9186 12.3651C3.80763 12.4932 3.65472 12.575 3.48886 12.5951L3.40909 12.6C3.24209 12.6 3.0809 12.537 2.95611 12.4231C2.83131 12.3092 2.75158 12.1522 2.73205 11.9819L2.72727 11.9V1.4H11.5909C11.7579 1.40002 11.9191 1.46297 12.0439 1.5769C12.1687 1.69083 12.2484 1.84782 12.268 2.0181L12.2727 2.1V9.1H13.6364V2.1C13.6364 1.54305 13.4209 1.0089 13.0373 0.615076C12.6537 0.221249 12.1334 0 11.5909 0H2.04545Z" fill="#00658B"/>
<path d="M5 3H11" stroke="#00658B" stroke-linecap="round"/>
<path d="M5 5.5H11" stroke="#00658B" stroke-linecap="round"/>
<path d="M5 8H11" stroke="#00658B" stroke-linecap="round"/>
</svg>
