<svg width="15" height="15" viewBox="0 0 15 15" fill="none" xmlns="http://www.w3.org/2000/svg">
<g clip-path="url(#clip0_9073_77)">
<path fill-rule="evenodd" clip-rule="evenodd" d="M11.4418 0.97998C8.068 2.11986 4.46744 2.38086 0.931667 2.19362C0.931667 2.19362 0.929867 2.59507 0.929867 6.10482L1.91726 7.10064C1.46228 7.39621 1.00358 7.68586 0.541351 7.96975L0.539551 11.2025L3.32764 14.0162C7.07214 14.2629 10.8948 13.9868 14.4602 12.7463V8.83689L13.4419 7.80996C13.705 7.55302 13.9687 7.29103 14.2281 7.02641C14.2281 6.71723 14.2299 3.79184 14.2299 3.79184L11.4418 0.97998ZM13.1489 6.7815V5.21412L13.147 5.2123C10.7187 5.89621 8.29039 6.15562 5.86207 6.15562C5.50591 6.15562 5.15153 6.1502 4.79539 6.1393V7.87359C5.15514 7.88448 5.51308 7.88993 5.87283 7.88993C7.12298 7.88993 8.37314 7.82098 9.62328 7.65953C7.88567 9.06909 6.14626 10.3009 4.40687 11.4165V12.9839C4.89253 13.0039 5.37819 13.0148 5.86385 13.0148C8.36953 13.0148 10.8752 12.7372 13.3827 12.0043V10.27C11.5641 10.7997 9.74919 11.0918 7.93244 11.2134C9.67005 9.91264 11.4094 8.45411 13.1489 6.7815Z" fill="#00658B"/>
</g>
<defs>
<clipPath id="clip0_9073_77">
<rect width="15" height="15" fill="white"/>
</clipPath>
</defs>
</svg>
