<svg width="26" height="26" viewBox="0 0 26 26" fill="none" xmlns="http://www.w3.org/2000/svg">
<path d="M23.2239 3.11655L13.2564 1.15234H12.8538L2.88641 3.11655C2.55701 3.17755 2.34961 3.44595 2.34961 3.77535V12.2788C2.34961 18.757 7.63223 23.393 12.9148 24.7106H13.1832C18.4049 23.4052 23.7485 18.757 23.7485 12.2788V3.77535C23.7607 3.44595 23.5655 3.17755 23.2239 3.11655ZM22.4187 12.2666C22.4187 17.9518 17.7339 22.1364 13.0612 23.3808C8.37643 22.1364 3.70381 18.0128 3.70381 12.2666V4.28775L13.0612 2.45775L22.4187 4.28775V12.2666Z" fill="#09FFE1"/>
<path d="M13.0611 4.82471L5.57031 6.92311V12.4741C5.57031 15.7071 10.3893 20.1724 13.0611 20.8678C15.7329 20.1724 20.552 15.6705 20.552 12.4741V6.92311L13.0611 4.82471ZM17.5996 10.0585L12.3047 15.3533C12.0973 15.5607 11.7557 15.5607 11.5483 15.3533L8.52272 12.3277C8.31532 12.1203 8.31532 11.7787 8.52272 11.5713C8.73012 11.3639 9.07172 11.3639 9.27912 11.5713L11.9265 14.2187L16.8431 9.30212C17.0505 9.09472 17.3922 9.09472 17.5996 9.30212C17.807 9.50952 17.807 9.85112 17.5996 10.0585Z" fill="#09FFE1"/>
</svg>
